<?xml version="1.0" encoding="UTF-8" standalone="no"?>
<!-- Created with Inkscape (http://www.inkscape.org/) -->

<svg
   width="192.2571mm"
   height="20.71139mm"
   viewBox="0 0 192.2571 20.71139"
   version="1.1"
   id="svg5"
   inkscape:version="1.1.2 (b8e25be8, 2022-02-05)"
   sodipodi:docname="Swisslog logo 2023 one line.svg"
   xmlns:inkscape="http://www.inkscape.org/namespaces/inkscape"
   xmlns:sodipodi="http://sodipodi.sourceforge.net/DTD/sodipodi-0.dtd"
   xmlns="http://www.w3.org/2000/svg"
   xmlns:svg="http://www.w3.org/2000/svg">
  <sodipodi:namedview
     id="namedview7"
     pagecolor="#ffffff"
     bordercolor="#666666"
     borderopacity="1.0"
     inkscape:pageshadow="2"
     inkscape:pageopacity="0.0"
     inkscape:pagecheckerboard="0"
     inkscape:document-units="mm"
     showgrid="false"
     fit-margin-top="0"
     fit-margin-left="0"
     fit-margin-right="0"
     fit-margin-bottom="0"
     inkscape:zoom="1.1813265"
     inkscape:cx="386.43001"
     inkscape:cy="65.180966"
     inkscape:window-width="1440"
     inkscape:window-height="792"
     inkscape:window-x="0"
     inkscape:window-y="25"
     inkscape:window-maximized="1"
     inkscape:current-layer="layer1" />
  <defs
     id="defs2" />
  <g
     inkscape:label="Ebene 1"
     inkscape:groupmode="layer"
     id="layer1"
     transform="translate(-9.7023789,-18.470724)">
    <path
       d="m 107.11357,35.79235 h 20.45077 v 3.389764 h -20.45077 z m -1.11755,-11.324298 c 0,-3.538713 2.64502,-5.997328 6.63058,-5.997328 h 14.93774 v 3.389764 h -14.90046 c -1.75081,0 -3.01696,1.042991 -3.01696,2.607564 0,1.5644 1.26615,2.682125 3.01696,2.682125 h 14.90046 v 3.389764 H 112.6266 c -3.98556,0 -6.63058,-2.533003 -6.63058,-6.071889 M 82.304432,35.79235 H 102.7552 v 3.389764 H 82.304432 Z M 81.186878,24.468052 c 0,-3.538713 2.645017,-5.997328 6.63058,-5.997328 H 102.7552 v 3.389764 H 87.854739 c -1.750801,0 -3.016962,1.042991 -3.016962,2.607564 0,1.5644 1.266161,2.682125 3.016962,2.682125 H 102.7552 v 3.389764 H 87.817458 c -3.985563,0 -6.63058,-2.533003 -6.63058,-6.071889 m -7.226553,-5.997328 h 3.65039 v 20.71139 h -3.65039 z m -38.368709,0 h 3.6509 V 36.537097 L 50.38041,18.470724 h 6.034608 v 17.992157 l 11.13807,-17.992157 h 3.985563 L 58.72451,39.182114 H 52.764288 V 21.078116 L 41.589289,39.182114 H 35.591616 Z M 9.7023789,24.468052 c 0,-3.538713 2.6446721,-5.997328 6.6305741,-5.997328 h 14.937746 v 3.389764 H 16.370233 c -1.7508,0 -3.016955,1.042991 -3.016955,2.607564 0,1.5644 1.266155,2.682125 3.016955,2.682125 h 14.900466 v 3.389764 H 16.332953 C 12.347051,30.539769 9.7023789,28.006593 9.7023789,24.46788 m 1.1175471,11.324297 h 20.450773 v 3.389937 H 10.819926 V 35.79235 Z"
       fill="#d10007"
       id="path9"
       style="stroke-width:0.172595"
       sodipodi:nodetypes="ccccccsccsssccscccccccsccsssccscccccccccccccccccccccsccssscccccccccc" />
    <path
       d="m 178.81501,28.82642 c 0,-6.071888 4.54442,-10.355696 11.02605,-10.355696 h 12.11841 v 3.389767 h -12.08113 c -4.35837,0 -7.41296,2.831074 -7.41296,6.965929 0,4.134861 3.05459,6.965935 7.41296,6.965935 h 8.4304 V 30.502836 H 188.2392 v -3.390284 h 13.72027 v 12.069562 h -12.11841 c -6.48163,0 -11.02623,-4.283808 -11.02623,-10.355694 m -24.24786,0 c 0,4.134861 3.05493,6.965935 7.41295,6.965935 h 3.19042 c 4.35802,0 7.41295,-2.831074 7.41295,-6.965935 0,-4.134855 -3.05493,-6.965929 -7.41295,-6.965929 h -3.19024 c -4.35803,0 -7.41296,2.831074 -7.41296,6.965929 m -3.65038,0 c 0,-6.071888 4.54443,-10.355696 11.02623,-10.355696 h 3.2648 c 6.48163,0 11.0264,4.283808 11.0264,10.355696 0,6.071886 -4.54477,10.355694 -11.02622,10.355694 h -3.26464 c -6.4818,0 -11.02622,-4.283808 -11.02622,-10.355694 M 131.51795,18.470724 h 3.65073 v 17.321631 h 14.71372 v 3.389759 h -18.36427 v -20.71139 z"
       style="fill:#d10007;stroke-width:0.0456658"
       id="path392" />
  </g>
</svg>
